<?xml version="1.0" encoding="utf-8"?>
<!-- Generator: Adobe Illustrator 14.0.0, SVG Export Plug-In  -->
<!DOCTYPE svg PUBLIC "-//W3C//DTD SVG 1.1//EN" "http://www.w3.org/Graphics/SVG/1.1/DTD/svg11.dtd" [
	<!ENTITY ns_flows "http://ns.adobe.com/Flows/1.0/">
]>
<svg version="1.1"
	 xmlns="http://www.w3.org/2000/svg" xmlns:xlink="http://www.w3.org/1999/xlink" xmlns:a="http://ns.adobe.com/AdobeSVGViewerExtensions/3.0/"
	 x="0px" y="0px" width="314px" height="463px" viewBox="-2.854 -5.594 314 463" enable-background="new -2.854 -5.594 314 463"
	 xml:space="preserve">
<defs>
</defs>
<path fill="#FFD42A" stroke="#000000" stroke-width="2.2155" d="M290.384,385.939c-2.83,67.16-128.092,29.02-135.514,64.219
	c-9.202-30.023-129.572,2.064-135.946-67.203"/>
<path fill="#FFD42A" stroke="#000000" stroke-width="2.2155" d="M32.412,127.126h246.391v246.109
	c0,72.174-106.414,27.766-123.196,64.203c-14.783-32.102-124.196,9.631-124.196-64.203l0,0V127.126H32.412z"/>
<rect x="30.266" y="126.976" fill="#FFFFFF" stroke="#000000" stroke-width="1.5" width="124.449" height="140.451"/>
<path fill="#C4C4C4" d="M61.467,199.771c-0.062-0.019-0.125-0.036-0.188-0.055c0,0.005,0,0.011,0,0.016
	c0.063,0.018,0.125,0.035,0.188,0.052C61.467,199.781,61.467,199.776,61.467,199.771z"/>
<path stroke="#000000" stroke-width="2.7" d="M124.374,217.613c0,4.112-0.952,7.774-2.677,10.953
	c-1.725,3.18-4.221,5.875-7.31,8.055c-3.087,2.184-6.767,3.852-10.856,4.973c-4.092,1.123-8.592,1.697-13.325,1.697
	c-4.732,0-9.082-0.574-12.945-1.697c-2.695-0.783-8.408-3.703-10.024-4.973c-2.785-2.18-4.978-4.875-6.475-8.055
	c-1.497-3.179-2.298-6.841-2.298-10.953c0-4.111,2.961-14.039,4.411-17.239c3.016-6.965,0.982-0.427,5.11-0.708
	c5.473-0.373,4.898,0.042,8.498,0.06c4.339,0.021,9.784-0.108,15.237-0.108c5.453,0,10.025-0.192,14.355-0.432
	c5.832-0.324,5.832-0.324,9.937-0.711c3.147-0.297,2.608,0.033,6.109,8.356C123.606,209.908,124.374,213.5,124.374,217.613"/>
<path stroke="#001E35" stroke-width="0.216" d="M89.575,189.074c-20.012,0-30.216,5.364-30.216,6.066
	c0,6.347,12.522,6.181,32.534,6.181c22.892,0,30.287-3.372,30.287-5.802C122.181,191.592,109.585,189.074,89.575,189.074z
	 M91.525,197.938c-16.677,0-28.012-0.461-28.012-3.35c0-0.585,12.823-2.716,29.5-2.716c16.677,0,25.012,0.178,25.012,2.491
	C118.024,194.949,108.203,197.938,91.525,197.938z"/>
<path stroke="#000000" stroke-width="2.7" d="M92.88,192.09c16.676,0,25.012,0.178,25.012,2.491c0,0.585-9.824,3.574-26.5,3.574"/>
<path fill="#225E28" stroke="#000000" stroke-width="0.54" d="M91.437,193.95c-9.075,7.928-5.815,2.416,0-4.048
	c-3.023,3.36,19.909-8.761,22.828-15.728c0.708-1.688,0.444-4.064,2.215-5.892c0.407-0.407,0.814-0.814,1.222-1.222
	c3.557-3.726,1.798-0.515,2.291-1.375c-1.759,3.069,0.635-1.22-0.305-0.306c-0.514,0.499,0.893-1.079,1.68-1.68
	c0.384-0.483,1.168-0.967,1.299-1.451c0.382-0.382,0.764,0,1.146-0.382c1.6,1.351,1.014,1.97,0.152,3.361
	c-0.856,1.382,2.512-2.168,2.749-0.763c-2.842,1.063-6.618,5.736-3.206,3.206c0.765-0.766,0.276-0.278,1.983-1.985
	c0.331-0.336,0.662-0.718,0.993-0.687c-0.466,1.068-1.318,2.138-2.442,3.207c-0.332,0.331-0.663,0.662-0.994,0.993
	c-2.036,2.168-1.399,3.822-3.436,5.891c-0.209-0.043-0.809,0.555-0.765,0.763c-1.448,1.739-3.241,3.108-4.86,4.996
	c-1.434,1.674-5.895,0.89-4.401,2.251"/>
<path fill="#225E28" d="M128.339,174.814c-1.361,0.453-1.767,1.253-2.996,1.754C124.952,175.493,127.546,173.576,128.339,174.814z
	 M125.801,175.76c0.523-0.028-0.032-1.555,0.725-1.768C126.563,174.026,125.787,175.843,125.801,175.76z"/>
<path fill="#7D0505" d="M131.336,172.147c-0.526,0.323-2.089,0.02-2.376,0.43C129.485,172.255,131.049,172.557,131.336,172.147z"/>
<path fill="#7D0505" d="M132.695,175.854c-0.697,0.127-1.999,0.734-2.544,1.187C130.999,176.645,131.849,176.249,132.695,175.854z"
	/>
<path fill="#7D0505" d="M130.472,177.725c-0.424,0.197-0.847,0.396-1.271,0.593C129.476,178.387,130.348,177.981,130.472,177.725z"
	/>
<path fill="#225E28" stroke="#000000" stroke-width="0.54" d="M125.654,176.635c0.066-0.027,0.109-0.794,2.995-1.754
	C127.857,173.642,125.265,175.558,125.654,176.635z"/>
<path fill="#225E28" stroke="#000000" stroke-width="0.54" d="M99.65,197.306c-18.466,3.3-11.291-0.777-4.307-8.882
	c4.771-5.535,21.416-6.363,24.209-9.385c1.241-1.344,1.437-2.653,3.725-3.764c0.523-0.244,1.693-0.487,2.215-0.73
	c4.616-2.284,1.865,0.131,2.624-0.508c-2.704,2.282,1.014-0.93-0.184-0.392c-0.653,0.293,0.667-0.708,1.613-1.004
	c0.526-0.323,1.234-0.55,1.501-0.487c0.526,0.123,0.867-0.039,1.207,0.033c2.049,0.431-0.244,2.772-1.527,3.784
	c-1.279,1.006,4.38-2.185,4.122-0.784c-3.034,0.028-8.182,3.129-4.112,1.918c0.983-0.458,0.357-0.167,2.546-1.187
	c0.427-0.203,0.867-0.449,1.168-0.307c-0.805,0.845-1.972,1.558-3.393,2.178c-0.425,0.198-0.849,0.396-1.273,0.594
	c-2.654,1.34-2.901,2.098-5.522,3.346c-0.182-0.113-0.949,0.245-0.979,0.456c-1.957,1.137-6.029,4.403-13.851,5.879l-15.437,9.497"
	/>
<path fill="#7D0505" d="M134.891,173.401c-0.429,0.277-1.004,0.908-1.194,1.272C134.125,174.396,134.7,173.765,134.891,173.401z"/>
<path fill="#E20909" d="M134.891,173.401c0.326-0.152,0.652-0.304,0.979-0.456c-0.348-0.092-0.826,0.185-1.215,0.208
	c0.193-0.389,0.579-0.71,0.946-1.037c-2.081,1.058-4.088,3.253-6.068,4.618c1.138-0.453,2.893-1.384,4.163-2.061
	C133.887,174.309,134.46,173.678,134.891,173.401z"/>
<path fill="#7D0505" d="M124.351,166.97c0.282-0.029,1.729-0.606,1.759-0.889C125.776,166.412,124.681,166.639,124.351,166.97"/>
<path fill="#7D0505" d="M128.661,162.095c-3.945,5.205-0.451-1.55-0.688,0.199C128.28,161.886,128.606,162.501,128.661,162.095z"/>
<path fill="#E20909" d="M123.134,167.495c0.914-0.815,3.013-2.187,3.975-3.257c0.055-0.407,0.378-0.656,0.687-1.063
	c0.255-0.254,0.51-0.509,0.765-0.764c-0.357,0.032-0.715,0.457-1.069,0.61c0.049-0.432,0.301-0.865,0.535-1.298
	C126.225,163.651,124.393,165.728,123.134,167.495"/>
<path fill="#225E28" d="M118.506,168.19c-0.393-1.076,2.204-2.993,2.995-1.754"/>
<path fill="#225E28" d="M121.501,166.437c-1.36,0.452-1.767,1.253-2.995,1.754"/>
<path fill="#225E28" d="M119.688,165.614c0.035,0.034-0.738,1.85-0.725,1.768C119.486,167.354,118.933,165.827,119.688,165.614"/>
<path fill="#225E28" stroke="#000000" stroke-width="0.54" d="M121.813,166.502c-0.792-1.238-3.388,0.679-2.995,1.754"/>
<path fill="#225E28" stroke="#000000" stroke-width="0.54" d="M118.817,168.257c0.065-0.027,0.108-0.794,2.995-1.754"/>
<path d="M66.958,195.821c0,0.008,0,0.018,0,0.026c-0.001,0-0.002-0.001-0.003-0.001C66.957,195.836,66.958,195.828,66.958,195.821z"
	/>
<path fill="#FCEE21" d="M67.392,195.537c0,0.009,0,0.018,0,0.026c0,0-0.001,0-0.002-0.001
	C67.391,195.553,67.391,195.545,67.392,195.537z"/>
<path fill="#3B3B3B" d="M67.392,195.537c-0.001,0.008-0.001,0.017-0.002,0.025c0.001,0.001,0.002,0.001,0.002,0.001
	C67.392,195.554,67.392,195.547,67.392,195.537z"/>
<path fill="#225E28" stroke="#000000" stroke-width="0.432" d="M64.681,196.179c0,0,6.607,1.676,6.009,0.939"/>
<path fill="#225E28" stroke="#000000" stroke-width="0.54" d="M98.58,193.629c6.114-1.337,14.852-2.308,22.167-4.156
	c7.316-1.849,13.213-4.142,13.645-3.804c0.225,0.182,0.586,0.144,0.946,0.322c0.36,0.179,0.723,0.357,0.946,0.539
	c2.039,1.572,2.214,1.789,1.994,1.879c-0.222,0.09-0.84-0.162-0.386,0.038c-1.618-0.713-1.299-0.587-0.7-0.389
	c0.599,0.199,1.476,0.472,0.972,0.053c-0.275-0.229-0.043-0.156,0.344,0.063c0.387,0.22,1.676,1.336,2.017,1.696
	c1.138,0.724,1.681,1.384,1.681,2.725c-1.065,0.614-2.069-0.125-2.757-0.181c-0.687-0.056-1.41-0.417-2.147-0.772
	c-0.732-0.354,0.239,0.391,1.222,1.271c0.983,0.881,1.979,1.897,1.292,2.089c-0.678-1.357-2.278-2.851-3.35-3.615
	c-1.072-0.765-1.614-0.799-0.178,0.763c0.422,0.341,0.498,0.403,0.703,0.569c0.207,0.167,0.542,0.438,1.481,1.196
	c0.185,0.147,0.38,0.292,0.53,0.443c0.15,0.15,0.255,0.305,0.256,0.472c-0.555-0.176-1.122-0.448-1.696-0.801
	c-0.575-0.354-1.158-0.79-1.749-1.292c-0.182-0.147-0.364-0.294-0.546-0.441s-0.363-0.294-0.546-0.442
	c-1.186-0.898-1.194-1.316-1.27-1.5c-0.075-0.185,0.533-0.134-0.918-0.097c-0.061-0.088-1.052-0.128-1.293-0.124
	c-0.241,0.004-0.479,0.053-0.537,0.144c-1.124,0.122-2.242,0.771-3.387,1.419c-1.146,0.648-2.318,1.295-3.557,1.414l-16.35,3.732
	l-12.893,0.708l2.031-1.96L98.58,193.629"/>
<path fill="#EC0000" d="M141.318,195.599c-0.402-0.314-1.188-0.648-1.594-0.708C140.126,195.203,140.915,195.538,141.318,195.599z"
	/>
<path fill="#EC0000" d="M141.318,195.599c0.252,0.257,0.503,0.516,0.755,0.773c-0.028-0.357-0.448-0.718-0.597-1.077
	c0.431,0.055,0.861,0.313,1.291,0.552c-1.687-1.617-4.42-2.787-6.361-4.208c0.803,0.925,2.261,2.275,3.318,3.251
	C140.131,194.95,140.917,195.285,141.318,195.599z"/>
<rect x="63.072" y="201.969" fill="#FFD42A" stroke="#000000" stroke-width="0.216" width="10.492" height="8.161"/>
<rect x="84.273" y="201.878" fill="#FFD42A" stroke="#000000" stroke-width="0.216" width="10.492" height="8.16"/>
<rect x="105.586" y="201.662" fill="#FFD42A" stroke="#000000" stroke-width="0.216" width="10.491" height="8.162"/>
<rect x="62.982" y="218.968" fill="#FFD42A" stroke="#000000" stroke-width="0.216" width="10.491" height="8.16"/>
<rect x="84.489" y="218.751" fill="#FFD42A" stroke="#000000" stroke-width="0.216" width="10.492" height="8.16"/>
<rect x="105.371" y="218.537" fill="#FFD42A" stroke="#000000" stroke-width="0.216" width="10.492" height="8.16"/>
<rect x="84.364" y="234.898" fill="#FFD42A" stroke="#000000" stroke-width="0.216" width="10.492" height="8.161"/>
<polygon fill="#FFD42A" stroke="#000000" stroke-width="0.216" points="111.634,238.389 105.475,241.009 105.459,234.898 
	116.581,234.898 "/>
<polygon fill="#FFD42A" stroke="#000000" stroke-width="0.216" points="73.475,239.728 68.758,237.484 65.79,235.348 73.475,235.24 
	"/>
<polygon fill="#FFD42A" stroke="#000000" stroke-width="0.216" points="124.411,218.417 116.079,218.417 116.079,210.257 
	123.476,210.471 "/>
<rect x="94.981" y="210.257" fill="#FFD42A" stroke="#000000" stroke-width="0.216" width="10.492" height="8.162"/>
<rect x="73.69" y="210.471" fill="#FFD42A" stroke="#000000" stroke-width="0.216" width="10.491" height="8.162"/>
<rect x="73.69" y="227.128" fill="#FFD42A" stroke="#000000" stroke-width="0.216" width="10.491" height="8.16"/>
<rect x="94.981" y="226.912" fill="#FFD42A" stroke="#000000" stroke-width="0.216" width="10.492" height="8.162"/>
<polygon fill="#FFD42A" stroke="#000000" stroke-width="0.216" points="120.004,231.21 116.079,235.074 116.079,226.912 
	122.465,226.912 "/>
<polygon fill="#FFD42A" stroke="#000000" stroke-width="0.216" points="62.771,218.201 58.606,218.033 59.65,210.471 
	62.771,210.039 "/>
<polygon fill="#FFD42A" stroke="#000000" stroke-width="0.216" points="62.772,231.748 61.53,229.439 60.28,227.128 62.78,227.128 
	"/>
<path fill="#FFFFFF" stroke="#000000" stroke-width="0.891" d="M222.781,198.339C223.646,200.371,219.236,189.871,222.781,198.339"
	/>
<path fill="none" stroke="#000000" stroke-width="0.891" d="M243.749,199.724c-4.769-0.156-9.537-0.312-14.306-0.468"/>
<path fill="none" stroke="#000000" stroke-width="0.891" d="M235.855,179.433c-3.451,4.534-6.897,9.066-10.349,13.599"/>
<path fill="none" stroke="#000000" stroke-width="0.891" d="M215.437,199.76c-3.348,2.25-6.69,4.5-10.037,6.75"/>
<path fill="none" stroke="#000000" stroke-width="0.891" d="M218,192.917c-2.271-2.962-4.543-5.923-6.813-8.885"/>
<path d="M223.355,197.657C224.191,199.613,219.872,189.245,223.355,197.657"/>
<path fill="#FFFFFF" stroke="#000000" stroke-width="0.891" d="M258.75,180.595c-2.266-4.628-28.284,8.726-32.749,12.296
	c1.524-6.175-1.812-43.031-10.051-37.689c-7.513,4.87,1.396,32.849,2.592,37.723c-4.021-3.651-30.862-6.959-36.563,0.676
	c-5.731,7.675,30.357,6.193,34.106,6.004c-2.854,3.704-6.562,30.306-4.851,35.134c4.711,13.299,12.707-26.99,11.652-31.584
	c2.385,4.141,32.889,31.172,31.729,21.908c-1.396-11.162-19.738-23.944-23.871-26.233
	C238.585,197.354,265.825,187.559,258.75,180.595"/>
<path fill="none" stroke="#000000" stroke-width="0.891" d="M228.713,217.641c-3.376-9.651-5.006-14.307-4.896-13.993"/>
<path fill="none" stroke="#000000" stroke-width="0.891" d="M236.427,178.751c-3.449,4.533-6.9,9.065-10.349,13.598"/>
<path fill="none" stroke="#000000" stroke-width="0.891" d="M216.009,199.077c-3.347,2.25-6.691,4.5-10.037,6.75"/>
<ellipse transform="matrix(0.1737 0.9848 -0.9848 0.1737 377.0389 -56.7555)" stroke="#000000" stroke-width="3.0865" cx="222.34" cy="196.302" rx="3.379" ry="2.089"/>
<rect x="18.024" y="114.709" stroke="#000000" stroke-width="0.75" width="270.864" height="12.352"/>
<rect x="268.218" y="115.395" fill="#FFD42A" width="10.367" height="10.232"/>
<rect x="160.218" y="115.395" fill="#FFD42A" width="10.367" height="10.232"/>
<rect x="181.758" y="115.395" fill="#FFD42A" width="10.367" height="10.232"/>
<rect x="202.697" y="115.395" fill="#FFD42A" width="10.367" height="10.232"/>
<rect x="245.922" y="115.395" fill="#FFD42A" width="10.366" height="10.232"/>
<rect x="224.261" y="115.395" fill="#FFD42A" width="10.367" height="10.232"/>
<rect x="138.854" y="115.395" fill="#FFFFFF" width="10.367" height="10.232"/>
<rect x="29.979" y="115.395" fill="#FFFFFF" width="11.117" height="10.232"/>
<rect x="52.27" y="115.395" fill="#FFFFFF" width="10.367" height="10.232"/>
<rect x="73.208" y="115.395" fill="#FFFFFF" width="10.366" height="10.232"/>
<rect x="116.434" y="115.395" fill="#FFFFFF" width="10.367" height="10.232"/>
<rect x="94.771" y="115.395" fill="#FFFFFF" width="10.367" height="10.232"/>
<polygon stroke="#000000" stroke-width="0.75" points="18.313,384.757 18.313,114.645 29.914,114.645 31.414,384.757 "/>
<rect x="19.747" y="364.089" fill="#FFD42A" width="10.233" height="10.365"/>
<rect x="19.747" y="256.089" fill="#FFFFFF" width="10.233" height="10.365"/>
<rect x="19.747" y="277.63" fill="#FFD42A" width="10.233" height="10.365"/>
<rect x="19.747" y="298.57" fill="#FFD42A" width="10.233" height="10.367"/>
<rect x="19.747" y="341.792" fill="#FFD42A" width="10.233" height="10.367"/>
<rect x="19.747" y="234.721" fill="#FFFFFF" width="10.233" height="10.367"/>
<rect x="19.747" y="126.599" fill="#FFFFFF" width="10.233" height="10.367"/>
<rect x="19.747" y="148.139" fill="#FFFFFF" width="10.233" height="10.367"/>
<rect x="19.747" y="169.079" fill="#FFFFFF" width="10.233" height="10.367"/>
<rect x="19.747" y="212.301" fill="#FFFFFF" width="10.233" height="10.367"/>
<rect x="19.747" y="190.641" fill="#FFFFFF" width="10.233" height="10.367"/>
<polygon stroke="#000000" stroke-width="0.75" points="278.835,385.507 279.21,250.076 278.835,114.645 285.011,114.645 
	291.187,114.645 291.187,250.488 291.187,386.33 285.386,385.917 "/>
<rect x="280.021" y="256.089" fill="#FFD42A" width="10.232" height="10.365"/>
<rect x="280.021" y="234.721" fill="#FFD42A" width="10.232" height="10.367"/>
<rect x="280.021" y="126.599" fill="#FFD42A" width="10.232" height="10.367"/>
<rect x="280.021" y="148.139" fill="#FFD42A" width="10.232" height="10.367"/>
<rect x="280.021" y="169.079" fill="#FFD42A" width="10.232" height="10.367"/>
<rect x="280.021" y="212.301" fill="#FFD42A" width="10.232" height="10.367"/>
<rect x="280.021" y="190.641" fill="#FFD42A" width="10.232" height="10.367"/>
<polyline stroke="#000000" stroke-width="0.6874" points="17.997,267.027 290.984,267.027 290.984,277.402 17.997,277.402 "/>
<polygon points="29.014,407.718 23.423,398.832 34.694,393.56 40.035,402.447 "/>
<rect x="40.134" y="409.14" transform="matrix(-0.8572 -0.515 0.515 -0.8572 -129.1817 792.6898)" stroke="#000000" stroke-width="0.75" width="10.368" height="10.233"/>
<rect x="62.09" y="416.974" transform="matrix(-0.9659 -0.2589 0.2589 -0.9659 22.9597 847.2008)" stroke="#000000" stroke-width="0.75" width="10.364" height="10.229"/>
<rect x="82.739" y="421.025" transform="matrix(-0.9903 -0.1392 0.1392 -0.9903 115.6731 860.3724)" stroke="#000000" stroke-width="0.75" width="10.369" height="10.232"/>
<polygon stroke="#000000" stroke-width="0.75" points="135.063,436.511 124.822,435.14 126.423,424.033 136.664,425.654 "/>
<rect x="104.055" y="422.869" transform="matrix(-0.9986 -0.0524 0.0524 -0.9986 195.9115 861.1057)" stroke="#000000" stroke-width="0.75" width="10.367" height="10.233"/>
<polygon stroke="#000000" stroke-width="0.9897" points="158.825,442.419 155.14,452.169 151.457,443.169 150.457,441.9 
	150.456,429.38 154.583,435.38 159.458,429.38 159.017,437.4 "/>
<rect x="19.747" y="319.292" fill="#FFD42A" width="10.233" height="10.367"/>
<line fill="none" stroke="#000000" stroke-width="0.75" x1="278.517" y1="386.087" x2="290.392" y2="386.525"/>
<path stroke="#000000" stroke-width="1.6121" d="M287.646,399.798c-7.809,24.01-33.449,31.527-56.08,33.654
	c-11.226,1.055-22.484,1.455-33.685,2.508c-11.53,1.084-23.623,1.787-34.094,7.334c-3.101,1.643-5.294,3.002-7.845,5.391
	c-1.598-11.465-0.75-23.389-0.75-34.959c0-11.82,0-23.643,0-35.463c0-23.324,0-46.65,0-69.977c0-6.354,0-12.709,0-19.064
	c0-2.876,0-5.752,0-8.628c0-4.188,1.188-3.044,5.227-3.044c11.547,0,23.094,0,34.641,0c23.033,0,46.066,0,69.101,0
	c5.587,0,11.175,0,16.763,0c2.857,0,5.717,0,8.574,0c0.465,0,0.268,6.234,0.27,7.313c0.006,11.785,0.033,23.57,0.045,35.354
	c0.014,11.586,0.041,23.172,0.068,34.759c0.023,11.469,0.934,23.365-0.393,34.756C289.082,393.236,288.726,396.431,287.646,399.798"
	/>
<path fill="#FFFFFF" d="M275.119,389.796c-3.377,12.203-8.739,21.164-21.079,25.76c-10.462,3.896-21.558,5.004-32.581,6.064
	c-11.57,1.115-23.223,0.934-34.798,2.043c-11.628,1.117-21.173,4.709-31.424,10.199v-10.441v-9.049v-9.049v-9.049v-9.049v-9.049
	v-9.049v-9.049v-9.049v-9.049v-9.049v-9.049v-9.049v-9.049v-9.049v-19.17h8.914h7.431h7.431h7.428h7.432h7.43h7.432h7.43h7.429
	h7.431h7.428h7.432h7.432h7.428h7.431h8.172l0.013,4.938l0.01,17.945l0.015,6.383l0.015,6.383l0.01,6.381l0.012,6.383l0.014,6.381
	l0.012,6.383l0.011,6.379l0.015,6.383l0.01,6.383l0.014,6.381l0.013,6.383l0.013,6.381
	C276.017,381.287,275.556,385.539,275.119,389.796"/>
<polygon stroke="#000000" stroke-width="0.75" points="277.295,386.72 277.67,267.039 277.295,268.107 283.472,268.107 
	289.646,268.107 289.646,267.449 290.396,387.542 283.847,387.132 "/>
<rect x="279.284" y="364.089" fill="#FFFFFF" width="10.231" height="10.365"/>
<rect x="279.284" y="277.63" fill="#FFFFFF" width="10.231" height="10.365"/>
<rect x="279.284" y="298.57" fill="#FFFFFF" width="10.231" height="10.367"/>
<rect x="279.284" y="341.792" fill="#FFFFFF" width="10.231" height="10.367"/>
<rect x="279.284" y="319.292" fill="#FFFFFF" width="10.231" height="10.367"/>
<polygon fill="#FFFFFF" points="286.742,401.337 288.88,394.876 289.517,388.416 283.791,387.697 278.062,386.978 277.072,392.066 
	276.084,397.154 281.415,399.246 "/>
<polygon fill="#FFFFFF" points="274.148,418.884 280.672,410.828 272.722,404.388 266.945,410.945 "/>
<rect x="251.618" y="416.637" transform="matrix(0.9271 -0.3748 0.3748 0.9271 -139.3538 126.992)" fill="#FFFFFF" width="10.365" height="10.233"/>
<rect x="228.644" y="422.157" transform="matrix(0.9903 -0.139 0.139 0.9903 -57.1293 36.656)" fill="#FFFFFF" width="10.368" height="10.232"/>
<rect x="183.607" y="425.157" transform="matrix(0.9976 -0.0697 0.0697 0.9976 -29.534 14.2067)" fill="#FFFFFF" width="10.367" height="10.234"/>
<rect x="206.613" y="424.045" transform="matrix(0.9986 -0.0524 0.0524 0.9986 -22.1891 11.6832)" fill="#FFFFFF" width="10.366" height="10.233"/>
<polygon fill="#FFFFFF" points="160.418,441.775 172.957,437.535 171.355,428.179 160.418,433.31 "/>
<ellipse fill="#CA005D" stroke="#000000" stroke-width="0.75" cx="172.734" cy="153.465" rx="8.552" ry="12.119"/>
<path fill="#9E005D" d="M169.81,142.437c10.449-1.351,11.489,7.939,10.125,15.583c-0.293,0.646-0.834,1.083-0.674,2.116
	c-0.685,2.237-2.101,3.848-4.275,4.809c-1.055,0.029,0.111-0.78-0.448-0.962c-0.62,0.175-1.58,0.06-2.022,0.384
	c-0.402-0.141-0.033-0.349,0-0.577c-0.809,0.407-3.016,0.771-3.826-0.577c0.283-0.848,1.104-1.235,2.477-1.154
	c0.68-0.348-0.641-0.589-0.227-1.347c0.582,0.016,0.236,0.823,1.125,0.577c4.209-4.139,4.543-11.904,2.477-17.121
	c1.143-0.014,1.453,0.68,2.477,0.77c-0.813-2.727-5.479-1.599-9.227-1.154c-0.041-0.164,0.088-0.182,0.227-0.192
	c-0.039,0.417,0.797-0.875,1.125-0.77C169.365,142.634,169.59,142.634,169.81,142.437z M178.359,146.476
	c-0.275-0.468-0.188-1.249-0.898-1.347C177.459,145.834,177.374,146.615,178.359,146.476z"/>
<ellipse fill="#CA005D" stroke="#000000" stroke-width="0.75" cx="172.734" cy="243.208" rx="8.552" ry="12.119"/>
<path fill="#9E005D" d="M169.81,232.178c10.449-1.353,11.489,7.938,10.125,15.582c-0.293,0.646-0.834,1.084-0.674,2.115
	c-0.685,2.237-2.101,3.85-4.275,4.812c-1.055,0.028,0.111-0.781-0.448-0.962c-0.62,0.175-1.58,0.06-2.022,0.384
	c-0.402-0.142-0.033-0.351,0-0.576c-0.809,0.406-3.016,0.771-3.826-0.578c0.283-0.848,1.104-1.232,2.477-1.152
	c0.68-0.35-0.641-0.588-0.227-1.348c0.582,0.018,0.236,0.822,1.125,0.576c4.209-4.14,4.543-11.902,2.477-17.121
	c1.143-0.014,1.453,0.682,2.477,0.771c-0.813-2.729-5.479-1.601-9.227-1.153c-0.041-0.164,0.088-0.183,0.227-0.193
	c-0.039,0.417,0.797-0.875,1.125-0.77C169.365,232.376,169.59,232.376,169.81,232.178z M178.359,236.219
	c-0.275-0.469-0.188-1.25-0.898-1.349C177.459,235.578,177.374,236.359,178.359,236.219z"/>
<ellipse fill="#CA005D" stroke="#000000" stroke-width="0.75" cx="260.537" cy="153.465" rx="8.55" ry="12.119"/>
<path fill="#9E005D" d="M257.609,142.437c10.449-1.351,11.49,7.939,10.125,15.583c-0.293,0.646-0.834,1.083-0.674,2.116
	c-0.686,2.237-2.102,3.848-4.275,4.809c-1.057,0.029,0.109-0.78-0.448-0.962c-0.621,0.175-1.581,0.06-2.022,0.384
	c-0.4-0.141-0.035-0.349,0-0.577c-0.81,0.407-3.016,0.771-3.826-0.577c0.283-0.848,1.104-1.235,2.477-1.154
	c0.678-0.348-0.643-0.589-0.227-1.347c0.58,0.016,0.236,0.823,1.125,0.577c4.209-4.139,4.541-11.904,2.477-17.121
	c1.141-0.014,1.454,0.68,2.477,0.77c-0.813-2.727-5.479-1.599-9.227-1.154c-0.041-0.164,0.088-0.182,0.227-0.192
	c-0.039,0.417,0.797-0.875,1.125-0.77C257.167,142.634,257.39,142.634,257.609,142.437z M266.161,146.476
	c-0.276-0.468-0.188-1.249-0.897-1.347C265.261,145.834,265.172,146.615,266.161,146.476z"/>
<ellipse fill="#CA005D" stroke="#000000" stroke-width="0.75" cx="260.537" cy="243.208" rx="8.55" ry="12.119"/>
<path fill="#9E005D" d="M257.609,232.178c10.449-1.353,11.49,7.938,10.125,15.582c-0.293,0.646-0.834,1.084-0.674,2.115
	c-0.686,2.237-2.102,3.85-4.275,4.812c-1.057,0.028,0.109-0.781-0.448-0.962c-0.621,0.175-1.581,0.06-2.022,0.384
	c-0.4-0.142-0.035-0.351,0-0.576c-0.81,0.406-3.016,0.771-3.826-0.578c0.283-0.848,1.104-1.232,2.477-1.152
	c0.678-0.35-0.643-0.588-0.227-1.348c0.58,0.018,0.236,0.822,1.125,0.576c4.209-4.14,4.541-11.902,2.477-17.121
	c1.141-0.014,1.454,0.682,2.477,0.771c-0.813-2.729-5.479-1.601-9.227-1.153c-0.041-0.164,0.088-0.183,0.227-0.193
	c-0.039,0.417,0.797-0.875,1.125-0.77C257.167,232.376,257.39,232.376,257.609,232.178z M266.161,236.219
	c-0.276-0.469-0.188-1.25-0.897-1.349C265.261,235.578,265.172,236.359,266.161,236.219z"/>
<path fill="#FFFFFF" stroke="#000000" stroke-width="0.891" d="M94.925,342.152C95.789,344.182,91.379,333.682,94.925,342.152"/>
<path fill="none" stroke="#000000" stroke-width="0.891" d="M115.893,343.537c-4.767-0.152-9.537-0.312-14.305-0.467"/>
<path fill="none" stroke="#000000" stroke-width="0.891" d="M107.998,323.246c-3.45,4.533-6.898,9.066-10.348,13.6"/>
<path fill="none" stroke="#000000" stroke-width="0.891" d="M87.581,343.572c-3.347,2.25-6.693,4.5-10.038,6.75"/>
<path fill="none" stroke="#000000" stroke-width="0.891" d="M90.143,336.73c-2.272-2.964-4.543-5.925-6.813-8.886"/>
<path d="M95.499,341.469C96.334,343.426,92.015,333.057,95.499,341.469"/>
<path fill="#FFFFFF" stroke="#000000" stroke-width="0.891" d="M130.894,324.408c-2.265-4.627-28.285,8.729-32.75,12.295
	c1.526-6.174-1.81-43.029-10.049-37.688c-7.512,4.871,1.393,32.85,2.591,37.725c-4.019-3.651-30.864-6.959-36.565,0.676
	c-5.733,7.677,30.359,6.193,34.108,6.005c-2.856,3.702-6.559,30.308-4.848,35.136c4.711,13.299,12.707-26.99,11.653-31.585
	c2.384,4.14,32.887,31.175,31.729,21.907c-1.396-11.162-19.738-23.941-23.872-26.23
	C110.729,341.166,137.967,331.371,130.894,324.408"/>
<path fill="none" stroke="#000000" stroke-width="0.891" d="M100.857,361.453c-3.377-9.648-5.007-14.305-4.897-13.992"/>
<path fill="none" stroke="#000000" stroke-width="0.891" d="M108.568,322.564c-3.449,4.532-6.899,9.063-10.348,13.598"/>
<path fill="none" stroke="#000000" stroke-width="0.891" d="M88.152,342.889c-3.347,2.25-6.693,4.5-10.039,6.751"/>
<ellipse transform="matrix(0.1737 0.9848 -0.9848 0.1737 412.9996 188.0169)" stroke="#000000" stroke-width="3.0865" cx="94.462" cy="340.111" rx="3.379" ry="2.091"/>
<ellipse fill="#CA005D" stroke="#000000" stroke-width="0.75" cx="49.877" cy="297.278" rx="8.55" ry="12.12"/>
<path fill="#9E005D" d="M46.954,286.248c10.45-1.35,11.49,7.939,10.125,15.582c-0.293,0.646-0.833,1.084-0.674,2.117
	c-0.684,2.235-2.1,3.848-4.275,4.809c-1.055,0.029,0.111-0.779-0.45-0.961c-0.621,0.176-1.58,0.061-2.024,0.385
	c-0.401-0.143-0.033-0.35,0-0.576c-0.807,0.406-3.013,0.771-3.826-0.576c0.284-0.85,1.106-1.235,2.475-1.154
	c0.678-0.348-0.64-0.59-0.225-1.348c0.581,0.017,0.237,0.822,1.125,0.576c4.209-4.141,4.542-11.902,2.475-17.121
	c1.141-0.014,1.455,0.68,2.476,0.771c-0.813-2.728-5.48-1.599-9.226-1.152c-0.041-0.164,0.088-0.185,0.226-0.192
	c-0.038,0.418,0.797-0.875,1.125-0.769C46.508,286.445,46.732,286.445,46.954,286.248z M55.503,290.289
	c-0.277-0.469-0.189-1.25-0.9-1.348C54.604,289.646,54.517,290.426,55.503,290.289z"/>
<ellipse fill="#CA005D" stroke="#000000" stroke-width="0.75" cx="49.877" cy="387.021" rx="8.55" ry="12.119"/>
<path fill="#9E005D" d="M46.954,375.992c10.45-1.352,11.49,7.939,10.125,15.582c-0.293,0.646-0.833,1.084-0.674,2.117
	c-0.684,2.236-2.1,3.848-4.275,4.809c-1.055,0.029,0.111-0.779-0.45-0.963c-0.621,0.176-1.58,0.063-2.024,0.385
	c-0.401-0.141-0.033-0.35,0-0.574c-0.807,0.404-3.013,0.77-3.826-0.578c0.284-0.85,1.106-1.234,2.475-1.154
	c0.678-0.348-0.64-0.588-0.225-1.346c0.581,0.016,0.237,0.82,1.125,0.576c4.209-4.141,4.542-11.904,2.475-17.121
	c1.141-0.018,1.455,0.68,2.476,0.77c-0.813-2.727-5.48-1.6-9.226-1.154c-0.041-0.162,0.088-0.182,0.226-0.191
	c-0.038,0.418,0.797-0.875,1.125-0.771C46.508,376.189,46.732,376.189,46.954,375.992z M55.503,380.031
	c-0.277-0.467-0.189-1.248-0.9-1.346C54.604,379.39,54.517,380.169,55.503,380.031z"/>
<ellipse fill="#CA005D" stroke="#000000" stroke-width="0.75" cx="137.679" cy="297.278" rx="8.55" ry="12.12"/>
<path fill="#9E005D" d="M134.752,286.248c10.45-1.35,11.49,7.939,10.125,15.582c-0.293,0.646-0.834,1.084-0.674,2.117
	c-0.685,2.235-2.101,3.848-4.276,4.809c-1.055,0.029,0.111-0.779-0.449-0.961c-0.621,0.176-1.581,0.061-2.024,0.385
	c-0.401-0.143-0.034-0.35,0-0.576c-0.808,0.406-3.014,0.771-3.826-0.576c0.284-0.85,1.105-1.235,2.476-1.154
	c0.678-0.348-0.641-0.59-0.226-1.348c0.581,0.017,0.237,0.822,1.125,0.576c4.21-4.141,4.542-11.902,2.476-17.121
	c1.141-0.014,1.454,0.68,2.476,0.771c-0.813-2.728-5.48-1.599-9.226-1.152c-0.041-0.164,0.088-0.185,0.226-0.192
	c-0.038,0.418,0.797-0.875,1.125-0.769C134.31,286.445,134.534,286.445,134.752,286.248z M143.304,290.289
	c-0.276-0.469-0.188-1.25-0.899-1.348C142.402,289.646,142.315,290.426,143.304,290.289z"/>
<ellipse fill="#CA005D" stroke="#000000" stroke-width="0.75" cx="137.679" cy="387.021" rx="8.55" ry="12.119"/>
<path fill="#9E005D" d="M134.752,375.992c10.45-1.352,11.49,7.939,10.125,15.582c-0.293,0.646-0.834,1.084-0.674,2.117
	c-0.685,2.236-2.101,3.848-4.276,4.809c-1.055,0.029,0.111-0.779-0.449-0.963c-0.621,0.176-1.581,0.063-2.024,0.385
	c-0.401-0.141-0.034-0.35,0-0.574c-0.808,0.404-3.014,0.77-3.826-0.578c0.284-0.85,1.105-1.234,2.476-1.154
	c0.678-0.348-0.641-0.588-0.226-1.346c0.581,0.016,0.237,0.82,1.125,0.576c4.21-4.141,4.542-11.904,2.476-17.121
	c1.141-0.018,1.454,0.68,2.476,0.77c-0.813-2.727-5.48-1.6-9.226-1.154c-0.041-0.162,0.088-0.182,0.226-0.191
	c-0.038,0.418,0.797-0.875,1.125-0.771C134.31,376.189,134.534,376.189,134.752,375.992z M143.304,380.031
	c-0.276-0.467-0.188-1.248-0.899-1.346C142.402,379.39,142.315,380.169,143.304,380.031z"/>
<path d="M116.892,200.878c2.567-3.395,4.046-7.343,4.046-11.559c0-12.666-13.279-22.935-29.66-22.935
	c-16.381,0-29.66,10.269-29.66,22.935c0,4.216,1.479,8.164,4.046,11.559h-3.753c-2.289-3.47-3.589-7.396-3.589-11.559
	c0-14.074,14.755-25.482,32.956-25.482c18.201,0,32.956,11.409,32.956,25.482c0,4.163-1.3,8.089-3.589,11.559H116.892z"/>
<path stroke="#000000" stroke-width="2.7" d="M90.983,196.855c-16.676,0-28.012-0.462-28.012-3.35c0-0.585,12.823-2.715,29.5-2.715"
	/>
<path stroke="#FF8D5F" stroke-width="0.54" d="M44.188,186.758c-1.326-0.051-1.982-0.664-3.415-0.624
	C41.095,184.699,44.188,185.613,44.188,186.758z M41.673,185.628c0.784-0.058,1.305,0.678,1.808,0.525
	C43.522,186.226,41.652,185.673,41.673,185.628z"/>
<path fill="#225E28" stroke="#000000" stroke-width="0.432" d="M70.279,195.82c2.193,0.275-3.627-3.125-3.434-3.462l-14.464-5.97
	c-0.174-0.083-0.346-0.166-0.507-0.248c-1.626-0.839-2.256-2.001-4.787-2.263c-0.457-0.04-2.901-0.324-5.397-0.231
	c-2.609,0.792-2.288,1.058-2.529,0.888c-0.538-0.046-1.666,0.707-2.204,0.66c-0.326,1.89,3.412,1.722,2.692,1.484
	c1.544,0.508-3.318-0.478-2.597,0.751c2.86-1.013,8.757,0.141,4.518,0.395c-1.078-0.094-0.392-0.034-2.797-0.245
	c-0.469-0.044-0.969-0.124-1.202,0.111c1.044,0.521,2.385,0.791,3.933,0.888c0.468,0.041,0.934,0.081,1.4,0.122
	c0.948,0.112,7.202,1.465,13.203,2.563l8.163,3.618"/>
<path fill="#225E28" d="M57.333,161.16c-1.333-0.31-0.806-1.086-2.265-1.324"/>
<path fill="#E20909" d="M33.881,185.146c2.443,0.298,5.067,1.688,7.282,2.263l-0.366,0.091c-1.224-0.037-3.192-0.095-4.616-0.296
	c-0.305-0.277-1.06-0.673-1.558-0.787"/>
<path fill="#E20909" d="M33.915,186.016c0.294-0.204,0.84-0.108,1.211-0.219c-0.315-0.3-0.786-0.469-1.243-0.651"/>
<path fill="#E20909" d="M34.989,186.11c-0.358-0.031-0.717-0.063-1.076-0.094"/>
<path fill="#7D0505" d="M34.989,186.11c0.499,0.114,1.253,0.51,1.558,0.787C36.049,186.784,35.293,186.387,34.989,186.11"/>
<path d="M56.162,159.684c0.806,0.093,0.49,1.751,1.029,1.692C57.22,161.459,56.131,159.724,56.162,159.684z"/>
<path fill="#E20909" stroke="#000000" stroke-width="0.5589" d="M58.267,162.23c-1.064-0.683-1.551,0.332-2.707-0.605"/>
<path fill="#225E28" stroke="#000000" stroke-width="0.432" d="M71.02,196.137c-1.931-1.342-5.898-5.807-8.086-7.078
	c-0.03-0.211-0.797-0.57-0.979-0.457c-2.621-1.248-2.219-0.277-4.875-1.617c-0.425-0.199-0.848-0.396-1.272-0.594
	c-3.292-1.436-0.719,0.635-3.393-2.178c0.3-0.143,0.741,0.104,1.167,0.307c2.188,1.02,1.563,0.728,2.545,1.186
	c4.07,1.211-1.078-1.889-4.111-1.917c-0.258-1.401,4.123,0.784,2.845-0.223c-1.286-1.013-5.167-1.199-4.126-3.016
	c-0.696-0.325,1.912-0.872-0.086-0.315c0.671-0.187,0.994,0.104,0.41-0.276c-0.162-0.725,2.394-1.26,2.777-1.013
	c1.239,0.8,10.447,4.194,2.731,2.363c0.966,0.229,0.189-1.527,4.805,0.757c0.522,0.244,1.045,1.567,1.566,1.811
	c-0.605-0.293,5.378,4.471,3.727,2.683c2.792,3.022,11.013,7.906,14.766,9.896"/>
<path fill="#7D0505" d="M54.356,160.084c0.483,0.213,1.169,0.765,1.424,1.106C55.299,160.979,54.61,160.426,54.356,160.084z"/>
<path fill="#E20909" d="M54.878,161.036c-0.355-0.102-0.714-0.204-1.07-0.306c0.337-0.15,0.871,0.053,1.269,0.013
	c-0.262-0.368-0.706-0.632-1.134-0.907c2.292,0.74,3.832,1.578,6.073,2.648c-1.232-0.275-2.309,0.141-3.711-0.342
	C56.049,161.801,55.361,161.25,54.878,161.036z"/>
<path fill="#225E28" d="M54.107,182.974c-1.307-0.096,3.284,1.65-0.038,0.43"/>
<path fill="#225E28" d="M52.937,183.333c0.321-1.435,3.416,0.559,3.416,1.704"/>
<path fill="#225E28" d="M56.353,185.037c-1.326-0.051-1.982-1.744-3.416-1.704"/>
<path fill="#225E28" d="M55.646,184.434c0.041,0.072-1.307-1.37-1.285-1.415"/>
<path fill="#225E28" stroke="#000000" stroke-width="0.54" d="M52.667,183.502c3.041-0.084,3.344,1.701,3.415,1.705"/>
<path fill="#E20909" stroke="#000000" stroke-width="0.54" d="M53.971,184.787c-0.195-0.39-0.58-0.71-0.947-1.037
	c2.845,1.445,3.054,1.196,4.41,2.13"/>
<path fill="#7D0505" d="M50.604,183.48c0.499,0.114,1.254,0.51,1.559,0.787C51.664,184.154,50.909,183.758,50.604,183.48z"/>
<path fill="#E20909" d="M56.776,184.78c-1.224-0.036-3.191-0.311-4.615-0.512c-0.305-0.277-1.06-0.672-1.559-0.787
	c-0.357-0.031-0.718-0.063-1.075-0.095"/>
<path fill="#E20909" d="M49.496,182.516c2.318,0.283,4.955,1.659,7.282,2.263"/>
<path fill="#E20909" d="M49.527,183.386c0.293-0.204,0.839-0.107,1.21-0.219c-0.316-0.3-0.786-0.469-1.244-0.651"/>
<path fill="#7D0505" d="M52.609,184.771c-0.498-0.114-2.118-0.942-2.422-1.219C50.688,183.667,52.307,184.495,52.609,184.771"/>
<path fill="#E20909" d="M52.609,184.771c-0.305-0.277-1.924-1.104-2.422-1.219c-0.358-0.031-0.717-0.063-1.076-0.094
	c0.294-0.204,0.839-0.108,1.211-0.219c-0.315-0.3-0.786-0.469-1.243-0.652c2.285,0.279,5.696,2.06,8.146,2.695"/>
<path fill="#225E28" stroke="#000000" stroke-width="0.54" d="M58.811,162.957c2.361,0.386,3.475,1.973,3.115,1.889"/>
<ellipse stroke="#000000" stroke-width="0.216" cx="57.864" cy="181.241" rx="0.432" ry="0.266"/>
<path fill="#225E28" stroke="#000000" stroke-width="0.4471" d="M57.502,162.327c-1.985-2.303-2.262-1.326-0.68-3.184
	c0.451,0.328,0.798-0.237,1.249,0.092c0.213,0.474,1.174,0.399,1.644,0.832c0.826,0.445,2.974,1.667,2.466,1.307
	c-0.665-0.47,2.247,2.091-0.594,2.127c2.756-0.036-2.853-5.117,2.892-0.733c0.481,0.35,1.221,1.855,1.153,2.593
	c0.595,3.163,6.108,9.813,6.499,11.672l15.873,17.602"/>
<path fill="#225E28" stroke="#000000" stroke-width="0.4471" d="M88.003,194.635c-4.676,5.819-15.753-8.747-16.882-10.735
	c-1.273-2.242-1.515-3.779-2.646-5.835c0.085-0.204-0.575-0.313-0.185-0.802c-0.023,0.185-6.105-10.013-4.325-8.632
	c-0.323-0.235-5.352-3.357-5.947-3.789c-1.319-0.91-2.259-2.416-2.91-3.435c0.332-0.087,0.731,0.25,1.123,0.54
	c2.019,1.467,1.546,0.497,2.452,1.155"/>
<path stroke="#FF8D5F" stroke-width="0.54" d="M50.914,172.965c-1.326-0.051-1.334-1.313-2.767-1.272
	C48.42,170.464,50.915,172.035,50.914,172.965z M49.567,169.765c0.784-0.058,0.136,2.748,0.639,2.595
	C50.25,172.433,49.547,169.809,49.567,169.765z"/>
<path fill="#7D0505" d="M40.645,172.173c0.499,0.114,2.118,0.942,2.422,1.219C42.566,173.277,40.947,172.449,40.645,172.173z"/>
<path fill="#7D0505" d="M44.406,174.159c0.698-0.119,2.13,0.007,2.797,0.245C46.271,174.322,45.34,174.241,44.406,174.159z"/>
<path fill="#225E28" stroke="#000000" stroke-width="0.432" d="M86.899,196.267c-4.773,2.39-10.484-2.636-17.168-8.518
	c-9.313-8.194-11.716-12.307-23.017-13.65c-0.233-0.021-0.467-0.042-0.7-0.062c-0.233-0.02-0.467-0.04-0.699-0.061
	c-0.773-0.049-1.497-0.141-2.156-0.285c-0.659-0.144-1.255-0.342-1.778-0.602c0.117-0.118,0.3-0.157,0.513-0.161
	c0.213-0.003,0.455,0.027,0.689,0.05c1.203,0.104,1.633,0.143,1.896,0.165c0.264,0.023,0.361,0.032,0.9,0.08
	c2.186-0.131,1.874-0.52,0.607-0.731c-1.267-0.21-3.488-0.244-5.125,0.335c-0.36-0.614,0.675-0.783,1.607-0.861
	c0.932-0.079,1.762-0.067,0.99-0.321c-0.778-0.256-1.379-0.273-1.74-0.485c-0.361-0.212-0.483-0.617-0.304-1.648
	c0.269,0.023,0.415-0.099,0.562-0.222c0.147-0.123,0.292-0.245,0.562-0.222c0.205,0.145,0.535,0.047,0.891-0.07
	c0.356-0.117,0.734-0.255,1.036-0.193c0.495-0.022,1.265,0.042,1.822,0.106s0.902,0.127,0.545,0.101
	c-0.654-0.048,0.167-0.386,0.735-0.114c0.57,0.272,0.887,1.154-0.773,0.544c0.465,0.17-0.155-0.021-0.25-0.187
	c-0.098-0.164,0.329-0.301,2.889-0.017c0.287,0.025,0.411-0.539,0.537-0.351c0.125,0.187,0.249,0.375,0.538,0.399
	c5.713,0.59,5.186,1.455,18.106,11.156c8.472,6.362,17.047,15.171,17.86,15.59"/>
<path fill="#E20909" d="M40.43,171.741c-0.359-0.031-0.718-0.063-1.077-0.095c0.295-0.204,0.84-0.108,1.212-0.219
	c-0.316-0.3-0.787-0.469-1.244-0.651c2.317,0.282,5.818,2.091,8.146,2.695c-1.224-0.036-3.192-0.311-4.616-0.512
	C42.544,172.682,40.926,171.854,40.43,171.741z"/>
<path fill="#225E28" stroke="#000000" stroke-width="0.54" d="M48.092,169.599c3.041-0.085,2.695,2.235,2.767,2.238
	C50.858,170.691,48.414,168.164,48.092,169.599z"/>
<path fill="#225E28" d="M44.975,188.84c1.239,0.8,7.645-2.445-0.071-4.276c0.965,0.229,0.189-1.959,4.804,0.325"/>
<path stroke="#000000" stroke-width="0.216" d="M47.28,184.964c-0.239,0-0.433-0.12-0.433-0.266s0.193-0.266,0.433-0.266
	c0.238,0,0.432,0.12,0.432,0.266S47.521,184.964,47.28,184.964"/>
<path fill="#C4C4C4" d="M190.734,348.201c-0.063-0.018-0.127-0.035-0.188-0.055c0,0.006,0,0.012-0.001,0.016
	c0.063,0.021,0.126,0.035,0.188,0.053C190.734,348.21,190.734,348.205,190.734,348.201z"/>
<path stroke="#000000" stroke-width="2.7" d="M253.64,366.042c0,4.113-0.951,7.773-2.677,10.953s-4.221,5.873-7.312,8.057
	c-3.086,2.182-6.766,3.85-10.855,4.971c-4.091,1.123-8.591,1.699-13.324,1.699c-4.732,0-9.082-0.576-12.945-1.699
	c-2.691-0.783-8.404-3.703-10.021-4.971c-2.783-2.184-4.979-4.877-6.477-8.057s-2.299-6.84-2.299-10.953
	c0-4.111,2.961-14.041,4.41-17.236c3.016-6.967,0.981-0.43,5.109-0.709c5.475-0.373,4.896,0.043,8.498,0.061
	c4.339,0.021,9.783-0.109,15.234-0.109c5.455,0,10.024-0.189,14.354-0.432c5.831-0.323,5.831-0.323,9.938-0.711
	c3.146-0.297,2.606,0.033,6.108,8.357C252.875,358.335,253.64,361.929,253.64,366.042"/>
<path stroke="#001E35" stroke-width="0.216" d="M218.84,337.503c-20.011,0-30.215,5.363-30.215,6.066
	c0,6.346,12.521,6.18,32.534,6.18c22.893,0,30.285-3.371,30.285-5.801C251.445,340.021,238.855,337.503,218.84,337.503z
	 M220.792,346.369c-16.678,0-28.014-0.461-28.014-3.351c0-0.586,12.824-2.717,29.5-2.717c16.679,0,25.014,0.179,25.014,2.489
	C247.292,343.378,237.47,346.369,220.792,346.369z"/>
<path stroke="#000000" stroke-width="2.7" d="M222.148,340.518c16.678,0,25.014,0.179,25.014,2.49c0,0.586-9.823,3.573-26.499,3.573
	"/>
<path fill="#225E28" stroke="#000000" stroke-width="0.54" d="M220.704,342.382c-9.075,7.928-5.813,2.414,0-4.051
	c-3.022,3.361,19.907-8.76,22.825-15.727c0.709-1.688,0.445-4.064,2.218-5.894c0.405-0.406,0.813-0.813,1.222-1.224
	c3.559-3.727,1.799-0.516,2.291-1.375c-1.76,3.068,0.637-1.22-0.305-0.307c-0.516,0.5,0.895-1.078,1.68-1.68
	c0.385-0.482,1.168-0.969,1.301-1.451c0.381-0.381,0.764,0,1.146-0.381c1.601,1.352,1.015,1.969,0.151,3.359
	c-0.854,1.381,2.514-2.168,2.75-0.765c-2.842,1.063-6.619,5.736-3.207,3.207c0.767-0.769,0.275-0.278,1.982-1.985
	c0.33-0.336,0.662-0.717,0.992-0.687c-0.466,1.065-1.316,2.138-2.441,3.207c-0.33,0.33-0.662,0.662-0.992,0.991
	c-2.037,2.169-1.398,3.822-3.438,5.892c-0.208-0.043-0.81,0.556-0.767,0.765c-1.445,1.738-3.238,3.106-4.857,4.996
	c-1.436,1.674-5.896,0.891-4.4,2.25"/>
<path fill="#225E28" d="M257.605,323.244c-1.357,0.453-1.766,1.254-2.994,1.754C254.218,323.925,256.814,322.007,257.605,323.244z
	 M255.068,324.189c0.522-0.027-0.03-1.556,0.727-1.769C255.83,322.455,255.054,324.273,255.068,324.189z"/>
<path fill="#7D0505" d="M260.605,320.578c-0.524,0.322-2.09,0.021-2.377,0.432C258.753,320.682,260.316,320.988,260.605,320.578z"/>
<path fill="#7D0505" d="M261.963,324.283c-0.696,0.127-1.999,0.733-2.544,1.188C260.265,325.074,261.113,324.678,261.963,324.283z"
	/>
<path fill="#7D0505" d="M259.736,326.156c-0.424,0.196-0.848,0.396-1.271,0.592C258.742,326.818,259.613,326.412,259.736,326.156z"
	/>
<path fill="#225E28" stroke="#000000" stroke-width="0.54" d="M254.922,325.064c0.063-0.027,0.108-0.793,2.994-1.755
	C257.125,322.072,254.529,323.988,254.922,325.064z"/>
<path fill="#225E28" stroke="#000000" stroke-width="0.54" d="M228.918,345.736c-18.467,3.301-11.291-0.775-4.308-8.881
	c4.771-5.535,21.416-6.363,24.209-9.386c1.24-1.347,1.438-2.653,3.726-3.767c0.522-0.243,1.69-0.485,2.216-0.729
	c4.614-2.283,1.864,0.131,2.623-0.508c-2.703,2.279,1.014-0.932-0.185-0.395c-0.652,0.293,0.668-0.707,1.612-1.004
	c0.525-0.322,1.233-0.55,1.5-0.486c0.525,0.123,0.869-0.039,1.209,0.033c2.049,0.432-0.244,2.771-1.526,3.783
	c-1.278,1.006,4.379-2.185,4.12-0.783c-3.032,0.026-8.182,3.129-4.11,1.918c0.981-0.459,0.356-0.168,2.546-1.188
	c0.428-0.203,0.867-0.448,1.168-0.308c-0.805,0.847-1.972,1.56-3.395,2.179c-0.424,0.196-0.848,0.396-1.271,0.594
	c-2.654,1.341-2.9,2.099-5.521,3.347c-0.183-0.111-0.948,0.246-0.979,0.457c-1.957,1.137-6.029,4.401-13.852,5.879l-15.438,9.496"/>
<path fill="#7D0505" d="M264.156,321.83c-0.43,0.277-1.004,0.908-1.193,1.272C263.392,322.826,263.966,322.195,264.156,321.83z"/>
<path fill="#E20909" d="M264.156,321.83c0.326-0.15,0.652-0.303,0.98-0.455c-0.348-0.092-0.826,0.186-1.215,0.207
	c0.191-0.389,0.579-0.709,0.946-1.035c-2.082,1.059-4.091,3.254-6.068,4.617c1.14-0.453,2.894-1.385,4.162-2.062
	C263.152,322.74,263.728,322.107,264.156,321.83z"/>
<path fill="#7D0505" d="M253.616,315.4c0.282-0.029,1.729-0.605,1.761-0.89C255.044,314.843,253.945,315.07,253.616,315.4"/>
<path fill="#7D0505" d="M257.927,310.525c-3.945,5.205-0.451-1.552-0.688,0.198C257.547,310.316,257.875,310.93,257.927,310.525z"/>
<path fill="#E20909" d="M252.4,315.925c0.914-0.814,3.016-2.188,3.977-3.258c0.057-0.406,0.379-0.654,0.688-1.063
	c0.254-0.255,0.511-0.511,0.767-0.765c-0.356,0.03-0.718,0.457-1.067,0.608c0.049-0.434,0.301-0.864,0.533-1.299
	C255.491,312.082,253.659,314.158,252.4,315.925"/>
<path fill="#225E28" d="M247.773,316.621c-0.393-1.076,2.203-2.992,2.994-1.754"/>
<path fill="#225E28" d="M250.769,314.867c-1.357,0.451-1.767,1.252-2.994,1.754"/>
<path fill="#225E28" d="M248.957,314.044c0.034,0.033-0.738,1.852-0.727,1.77C248.754,315.783,248.197,314.259,248.957,314.044"/>
<path fill="#225E28" stroke="#000000" stroke-width="0.54" d="M251.082,314.932c-0.793-1.237-3.391,0.679-2.996,1.755"/>
<path fill="#225E28" stroke="#000000" stroke-width="0.54" d="M248.084,316.687c0.065-0.027,0.108-0.796,2.996-1.755"/>
<path d="M196.226,344.251c0,0.008,0,0.02,0,0.025c-0.002,0-0.002-0.002-0.004-0.002
	C196.224,344.266,196.224,344.259,196.226,344.251z"/>
<path fill="#FCEE21" d="M196.656,343.968c0,0.008,0,0.018,0,0.023c0,0,0,0-0.002,0C196.656,343.984,196.656,343.973,196.656,343.968
	z"/>
<path fill="#3B3B3B" d="M196.656,343.968c0,0.008,0,0.018-0.002,0.023c0.002,0,0.002,0,0.002,0
	C196.656,343.984,196.656,343.975,196.656,343.968z"/>
<path fill="#225E28" stroke="#000000" stroke-width="0.432" d="M193.947,344.609c0,0,6.605,1.676,6.01,0.938"/>
<path fill="#225E28" stroke="#000000" stroke-width="0.54" d="M227.847,342.059c6.114-1.338,14.853-2.309,22.166-4.155
	c7.316-1.851,13.213-4.144,13.646-3.806c0.225,0.183,0.587,0.146,0.945,0.322c0.359,0.18,0.725,0.356,0.945,0.539
	c2.039,1.571,2.215,1.788,1.993,1.879c-0.224,0.09-0.839-0.162-0.385,0.036c-1.619-0.713-1.3-0.586-0.7-0.389
	c0.6,0.199,1.477,0.473,0.973,0.053c-0.275-0.229-0.043-0.153,0.344,0.063c0.388,0.22,1.677,1.337,2.019,1.696
	c1.14,0.725,1.683,1.383,1.683,2.725c-1.065,0.613-2.07-0.125-2.759-0.182s-1.409-0.416-2.146-0.771
	c-0.731-0.354,0.238,0.392,1.223,1.271c0.982,0.881,1.979,1.896,1.292,2.088c-0.679-1.355-2.278-2.852-3.351-3.613
	c-1.071-0.766-1.615-0.801-0.178,0.762c0.422,0.343,0.498,0.404,0.701,0.57c0.207,0.166,0.542,0.438,1.479,1.195
	c0.188,0.146,0.383,0.291,0.531,0.441c0.149,0.149,0.254,0.307,0.256,0.473c-0.555-0.178-1.123-0.447-1.694-0.803
	c-0.575-0.354-1.159-0.789-1.749-1.291c-0.186-0.146-0.365-0.295-0.548-0.439c-0.183-0.146-0.362-0.295-0.546-0.441
	c-1.187-0.897-1.193-1.315-1.271-1.5c-0.075-0.186,0.533-0.135-0.918-0.098c-0.062-0.088-1.053-0.129-1.293-0.123
	c-0.241,0.004-0.479,0.053-0.536,0.143c-1.125,0.123-2.242,0.771-3.389,1.421c-1.146,0.647-2.316,1.295-3.559,1.414l-16.35,3.731
	l-12.895,0.707l2.031-1.959L227.847,342.059"/>
<path fill="#EC0000" d="M270.586,344.029c-0.401-0.313-1.188-0.648-1.594-0.709C269.394,343.634,270.181,343.968,270.586,344.029z"
	/>
<path fill="#EC0000" d="M270.586,344.029c0.252,0.256,0.502,0.516,0.754,0.772c-0.026-0.356-0.446-0.72-0.597-1.078
	c0.432,0.056,0.859,0.313,1.292,0.554c-1.688-1.617-4.421-2.787-6.361-4.209c0.804,0.926,2.261,2.274,3.318,3.252
	C269.398,343.382,270.185,343.716,270.586,344.029z"/>
<rect x="192.339" y="350.4" fill="#FFD42A" stroke="#000000" stroke-width="0.216" width="10.492" height="8.16"/>
<rect x="213.542" y="350.308" fill="#FFD42A" stroke="#000000" stroke-width="0.216" width="10.489" height="8.162"/>
<rect x="234.853" y="350.093" fill="#FFD42A" stroke="#000000" stroke-width="0.216" width="10.492" height="8.16"/>
<rect x="192.25" y="367.398" fill="#FFD42A" stroke="#000000" stroke-width="0.216" width="10.49" height="8.16"/>
<rect x="213.757" y="367.181" fill="#FFD42A" stroke="#000000" stroke-width="0.216" width="10.491" height="8.162"/>
<rect x="234.638" y="366.966" fill="#FFD42A" stroke="#000000" stroke-width="0.216" width="10.491" height="8.16"/>
<rect x="213.631" y="383.328" fill="#FFD42A" stroke="#000000" stroke-width="0.216" width="10.492" height="8.162"/>
<polygon fill="#FFD42A" stroke="#000000" stroke-width="0.216" points="240.9,386.82 234.741,389.437 234.728,383.328 
	245.847,383.328 "/>
<polygon fill="#FFD42A" stroke="#000000" stroke-width="0.216" points="202.74,388.158 198.025,385.914 195.056,383.777 
	202.74,383.669 "/>
<polygon fill="#FFD42A" stroke="#000000" stroke-width="0.216" points="253.677,366.847 245.345,366.847 245.345,358.685 
	252.742,358.902 "/>
<rect x="224.25" y="358.685" fill="#FFD42A" stroke="#000000" stroke-width="0.216" width="10.491" height="8.162"/>
<rect x="202.958" y="358.902" fill="#FFD42A" stroke="#000000" stroke-width="0.216" width="10.488" height="8.16"/>
<rect x="202.958" y="375.558" fill="#FFD42A" stroke="#000000" stroke-width="0.216" width="10.488" height="8.162"/>
<rect x="224.25" y="375.343" fill="#FFD42A" stroke="#000000" stroke-width="0.216" width="10.491" height="8.16"/>
<polygon fill="#FFD42A" stroke="#000000" stroke-width="0.216" points="249.271,379.64 245.345,383.503 245.345,375.343 
	251.732,375.343 "/>
<polygon fill="#FFD42A" stroke="#000000" stroke-width="0.216" points="192.04,366.63 187.875,366.46 188.917,358.902 
	192.04,358.47 "/>
<polygon fill="#FFD42A" stroke="#000000" stroke-width="0.216" points="192.041,380.179 190.797,377.869 189.548,375.558 
	192.047,375.558 "/>
<path d="M246.156,349.308c2.568-3.396,4.049-7.343,4.049-11.561c0-12.666-13.279-22.936-29.66-22.936s-29.658,10.27-29.658,22.936
	c0,4.218,1.479,8.164,4.047,11.561h-3.754c-2.289-3.47-3.59-7.396-3.59-11.561c0-14.073,14.756-25.481,32.955-25.481
	c18.201,0,32.955,11.41,32.955,25.481c0,4.162-1.3,8.091-3.588,11.561H246.156z"/>
<path stroke="#000000" stroke-width="2.7" d="M220.251,345.285c-16.678,0-28.014-0.461-28.014-3.351
	c0-0.584,12.824-2.715,29.5-2.715"/>
<path stroke="#FF8D5F" stroke-width="0.54" d="M173.455,335.187c-1.325-0.052-1.98-0.664-3.414-0.623
	C170.359,333.13,173.456,334.042,173.455,335.187z M170.939,334.057c0.785-0.06,1.309,0.679,1.812,0.524
	C172.791,334.656,170.92,334.1,170.939,334.057z"/>
<path fill="#225E28" stroke="#000000" stroke-width="0.432" d="M199.547,344.25c2.192,0.275-3.628-3.125-3.435-3.463l-14.465-5.969
	c-0.174-0.084-0.346-0.166-0.506-0.248c-1.627-0.84-2.259-2.002-4.787-2.265c-0.457-0.039-2.901-0.323-5.397-0.229
	c-2.608,0.791-2.287,1.059-2.528,0.889c-0.537-0.047-1.666,0.707-2.203,0.658c-0.326,1.893,3.412,1.725,2.691,1.484
	c1.544,0.508-3.318-0.478-2.598,0.752c2.859-1.015,8.757,0.141,4.519,0.395c-1.077-0.094-0.394-0.033-2.797-0.244
	c-0.472-0.043-0.97-0.123-1.203,0.109c1.045,0.521,2.386,0.791,3.935,0.891c0.467,0.041,0.936,0.08,1.399,0.121
	c0.947,0.111,7.202,1.465,13.203,2.563l8.163,3.619"/>
<path fill="#225E28" d="M186.601,309.591c-1.332-0.311-0.806-1.086-2.265-1.324"/>
<path fill="#E20909" d="M163.148,333.576c2.442,0.297,5.066,1.688,7.281,2.264l-0.365,0.092c-1.225-0.037-3.189-0.096-4.617-0.297
	c-0.305-0.275-1.059-0.674-1.557-0.787"/>
<path fill="#7D0505" d="M164.257,334.539c0.498,0.115,1.252,0.512,1.559,0.787C165.316,335.214,164.56,334.816,164.257,334.539"/>
<path d="M185.429,308.115c0.805,0.092,0.489,1.75,1.028,1.69C186.484,309.889,185.398,308.154,185.429,308.115z"/>
<path fill="#E20909" stroke="#000000" stroke-width="0.5589" d="M187.531,310.66c-1.063-0.683-1.551,0.332-2.704-0.604"/>
<path fill="#225E28" stroke="#000000" stroke-width="0.432" d="M200.287,344.568c-1.934-1.343-5.896-5.808-8.087-7.078
	c-0.029-0.211-0.798-0.57-0.979-0.457c-2.621-1.248-2.22-0.277-4.875-1.617c-0.426-0.197-0.849-0.396-1.273-0.594
	c-3.293-1.437-0.719,0.635-3.393-2.179c0.301-0.146,0.741,0.104,1.168,0.308c2.188,1.021,1.563,0.729,2.545,1.188
	c4.069,1.211-1.078-1.891-4.111-1.918c-0.258-1.4,4.123,0.783,2.848-0.225c-1.286-1.012-5.168-1.197-4.126-3.016
	c-0.694-0.324,1.911-0.871-0.086-0.314c0.671-0.188,0.993,0.104,0.408-0.275c-0.161-0.727,2.396-1.26,2.776-1.014
	c1.237,0.801,10.446,4.193,2.73,2.363c0.966,0.229,0.188-1.527,4.805,0.756c0.521,0.244,1.045,1.568,1.565,1.813
	c-0.604-0.293,5.379,4.473,3.728,2.684c2.793,3.021,11.014,7.906,14.766,9.896"/>
<path fill="#7D0505" d="M183.625,308.514c0.48,0.214,1.17,0.765,1.425,1.104C184.566,309.408,183.877,308.855,183.625,308.514z"/>
<path fill="#E20909" d="M184.146,309.468c-0.354-0.104-0.715-0.205-1.069-0.309c0.338-0.148,0.87,0.055,1.271,0.016
	c-0.263-0.369-0.705-0.633-1.136-0.908c2.293,0.74,3.832,1.578,6.074,2.646c-1.231-0.273-2.312,0.143-3.714-0.342
	C185.316,310.23,184.629,309.68,184.146,309.468z"/>
<path fill="#225E28" d="M183.375,331.404c-1.31-0.097,3.283,1.649-0.038,0.43"/>
<path fill="#225E28" d="M182.204,331.762c0.319-1.437,3.415,0.56,3.415,1.705"/>
<path fill="#225E28" d="M185.619,333.468c-1.325-0.053-1.98-1.744-3.415-1.703"/>
<path fill="#225E28" d="M184.913,332.865c0.041,0.072-1.31-1.371-1.286-1.416"/>
<path fill="#225E28" stroke="#000000" stroke-width="0.54" d="M181.933,331.932c3.041-0.084,3.344,1.701,3.416,1.705"/>
<path fill="#E20909" stroke="#000000" stroke-width="0.54" d="M183.236,333.218c-0.193-0.391-0.58-0.709-0.945-1.037
	c2.846,1.445,3.053,1.195,4.409,2.131"/>
<path fill="#7D0505" d="M179.871,331.91c0.499,0.115,1.254,0.512,1.561,0.787C180.931,332.583,180.174,332.187,179.871,331.91z"/>
<path fill="#E20909" d="M186.044,333.208c-1.225-0.035-3.191-0.311-4.615-0.512c-0.306-0.277-1.061-0.672-1.56-0.787
	c-0.356-0.031-0.718-0.063-1.074-0.096"/>
<path fill="#E20909" d="M178.763,330.945c2.317,0.283,4.954,1.66,7.281,2.264"/>
<path fill="#E20909" d="M178.795,331.816c0.293-0.205,0.839-0.107,1.21-0.22c-0.314-0.301-0.785-0.471-1.242-0.651"/>
<path fill="#7D0505" d="M181.877,333.201c-0.498-0.113-2.119-0.939-2.423-1.219C179.955,332.096,181.572,332.925,181.877,333.201"/>
<path fill="#E20909" d="M181.877,333.201c-0.306-0.275-1.924-1.104-2.423-1.219c-0.357-0.031-0.719-0.063-1.075-0.095
	c0.294-0.203,0.839-0.106,1.211-0.219c-0.315-0.302-0.786-0.47-1.243-0.652c2.284,0.279,5.695,2.062,8.146,2.695"/>
<path fill="#225E28" stroke="#000000" stroke-width="0.54" d="M188.078,311.387c2.359,0.386,3.477,1.974,3.113,1.89"/>
<ellipse stroke="#000000" stroke-width="0.216" cx="187.131" cy="329.67" rx="0.433" ry="0.267"/>
<path fill="#225E28" stroke="#000000" stroke-width="0.4471" d="M186.771,310.757c-1.983-2.305-2.263-1.326-0.681-3.186
	c0.451,0.328,0.798-0.236,1.249,0.092c0.213,0.477,1.174,0.4,1.645,0.832c0.826,0.445,2.976,1.668,2.466,1.309
	c-0.663-0.471,2.247,2.092-0.595,2.127c2.756-0.035-2.853-5.115,2.895-0.732c0.479,0.353,1.223,1.855,1.15,2.595
	c0.598,3.161,6.108,9.813,6.498,11.672l15.873,17.603"/>
<path fill="#225E28" stroke="#000000" stroke-width="0.4471" d="M217.271,343.066c-4.676,5.816-15.752-8.748-16.881-10.736
	c-1.272-2.24-1.516-3.777-2.646-5.834c0.085-0.203-0.576-0.313-0.188-0.803c-0.021,0.186-6.104-10.013-4.324-8.631
	c-0.32-0.236-5.352-3.357-5.944-3.789c-1.317-0.91-2.263-2.416-2.91-3.437c0.332-0.089,0.729,0.25,1.124,0.539
	c2.02,1.469,1.546,0.497,2.451,1.155"/>
<path stroke="#FF8D5F" stroke-width="0.54" d="M180.181,321.394c-1.326-0.052-1.334-1.313-2.768-1.271
	C177.687,318.891,180.181,320.466,180.181,321.394z M178.835,318.195c0.784-0.058,0.137,2.748,0.639,2.596
	C179.517,320.863,178.814,318.24,178.835,318.195z"/>
<path fill="#7D0505" d="M169.912,320.602c0.499,0.113,2.115,0.941,2.422,1.22C171.834,321.707,170.214,320.878,169.912,320.602z"/>
<path fill="#7D0505" d="M173.674,322.589c0.698-0.119,2.13,0.008,2.798,0.244C175.54,322.753,174.607,322.671,173.674,322.589z"/>
<path fill="#225E28" stroke="#000000" stroke-width="0.432" d="M216.167,344.697c-4.772,2.391-10.483-2.635-17.168-8.519
	c-9.313-8.192-11.718-12.308-23.019-13.649c-0.231-0.021-0.467-0.041-0.699-0.062s-0.467-0.041-0.698-0.063
	c-0.772-0.049-1.497-0.141-2.155-0.285c-0.66-0.145-1.256-0.342-1.777-0.602c0.117-0.117,0.301-0.156,0.515-0.16
	c0.212-0.004,0.455,0.025,0.688,0.049c1.203,0.105,1.633,0.146,1.896,0.166c0.265,0.021,0.36,0.031,0.899,0.08
	c2.188-0.133,1.873-0.521,0.606-0.731c-1.269-0.209-3.489-0.242-5.125,0.336c-0.36-0.613,0.675-0.783,1.604-0.86
	c0.935-0.078,1.765-0.066,0.99-0.32c-0.777-0.256-1.377-0.271-1.738-0.484c-0.359-0.211-0.482-0.617-0.305-1.646
	c0.27,0.021,0.414-0.1,0.563-0.223c0.146-0.123,0.293-0.246,0.563-0.225c0.205,0.146,0.535,0.049,0.892-0.068
	s0.733-0.254,1.036-0.191c0.494-0.022,1.267,0.041,1.822,0.105c0.558,0.063,0.9,0.127,0.545,0.102
	c-0.656-0.049,0.166-0.387,0.734-0.115c0.568,0.272,0.887,1.154-0.773,0.545c0.465,0.171-0.152-0.021-0.25-0.188
	c-0.098-0.164,0.33-0.301,2.892-0.019c0.285,0.024,0.41-0.538,0.535-0.351c0.125,0.187,0.25,0.375,0.536,0.397
	c5.714,0.59,5.188,1.455,18.106,11.155c8.472,6.361,17.048,15.17,17.86,15.59"/>
<path fill="#E20909" d="M169.695,320.171c-0.357-0.031-0.719-0.063-1.075-0.096c0.294-0.205,0.84-0.107,1.212-0.219
	c-0.314-0.302-0.787-0.47-1.244-0.652c2.314,0.283,5.816,2.094,8.146,2.695c-1.225-0.035-3.19-0.312-4.615-0.513
	C171.812,321.113,170.193,320.285,169.695,320.171z"/>
<path fill="#225E28" stroke="#000000" stroke-width="0.54" d="M177.359,318.029c3.041-0.086,2.695,2.233,2.769,2.237
	C180.126,319.121,177.681,316.594,177.359,318.029z"/>
<path fill="#225E28" d="M174.24,337.268c1.238,0.8,7.646-2.444-0.069-4.276c0.968,0.229,0.188-1.959,4.806,0.326"/>
<path stroke="#000000" stroke-width="0.216" d="M176.547,333.391c-0.237,0-0.433-0.118-0.433-0.266s0.193-0.267,0.433-0.267
	c0.24,0,0.433,0.119,0.433,0.267S176.788,333.391,176.547,333.391"/>
<line fill="none" stroke="#000000" x1="154.49" y1="277.544" x2="154.49" y2="435.828"/>
<polyline stroke="#000000" stroke-width="0.6874" points="149.32,442.066 149.32,114.479 159.592,114.479 159.592,442.066 "/>
<path fill="#FFD42A" stroke="#000000" d="M307.842,28.407l-14.381-4.672l-2.279,7.016l-6.848-2.225l2.279-7.016l-14.38-4.672
	l-2.279,7.016l-6.849-2.225l2.281-7.017L251.006,9.94l-2.336,7.19l2.506,0.814l-9.862,30.147l-7.776-1.96l-0.883,3.541l-5.695-1.419
	l0.859-3.443l-8.961-2.235l2.074-30.527l2.808,0.196l0.527-7.541l-15.083-1.055l-0.511,7.3l-7.183-0.502l0.511-7.3l-15.083-1.055
	l-0.511,7.3l-7.183-0.502l0.511-7.3l-15.084-1.055l-0.527,7.542l2.939,0.205l-2.114,30.54h-6.863v3.943h-6.948V38.82h-7.114
	l-2.115-30.575l2.438-0.171l-0.527-7.541l-15.083,1.055l0.513,7.335l-7.183,0.501l-0.513-7.335l-15.083,1.055l0.513,7.335
	l-7.183,0.503l-0.513-7.335L84.205,4.702l0.527,7.541l3.308-0.23l2.065,29.854l-9.935,1.805l0.873,3.5l-5.694,1.42l-0.873-3.5
	l-7.301,1.55L57.804,17.96l1.998-0.649l-2.337-7.19l-14.38,4.672l2.275,7l-6.847,2.226l-2.274-7.001l-14.38,4.672l2.275,7.001
	l-6.848,2.225l-2.274-7.002L0.63,28.588l2.336,7.189l3.48-1.13l23.746,73.081c86.054-27.961,162.385-28.01,248.591,0l23.75-73.096
	l2.973,0.965L307.842,28.407z"/>
<rect x="165.878" y="17.321" transform="matrix(0.9976 0.0698 -0.0698 0.9976 1.9349 -13.4025)" fill="#FFD42A" stroke="#000000" width="54" height="7.368"/>
<rect x="165.354" y="24.811" transform="matrix(0.9976 0.0698 -0.0698 0.9976 2.4564 -13.3492)" fill="#FFD42A" stroke="#000000" width="54.001" height="7.368"/>
<rect x="164.83" y="32.301" transform="matrix(0.9976 0.0698 -0.0698 0.9976 2.9773 -13.2929)" fill="#FFD42A" stroke="#000000" width="54" height="7.369"/>
<rect x="164.306" y="39.791" transform="matrix(0.9976 0.0698 -0.0698 0.9976 3.4984 -13.2382)" fill="#FFD42A" stroke="#000000" width="54" height="7.367"/>
<rect x="163.783" y="47.28" transform="matrix(0.9976 0.0698 -0.0698 0.9976 4.0195 -13.1834)" fill="#FFD42A" stroke="#000000" width="54" height="7.368"/>
<rect x="8.41" y="33.263" transform="matrix(0.9511 -0.309 0.309 0.9511 -9.6838 12.7503)" fill="#FFD42A" stroke="#000000" width="54.001" height="7.367"/>
<rect x="10.731" y="40.403" transform="matrix(0.9511 -0.309 0.309 0.9511 -11.7771 13.8172)" fill="#FFD42A" stroke="#000000" width="54" height="7.368"/>
<rect x="13.05" y="47.543" transform="matrix(0.9511 -0.309 0.309 0.9511 -13.8706 14.8845)" fill="#FFD42A" stroke="#000000" width="54.001" height="7.369"/>
<rect x="15.371" y="54.685" transform="matrix(0.9511 -0.309 0.309 0.9511 -15.9637 15.951)" fill="#FFD42A" stroke="#000000" width="54.001" height="7.368"/>
<line fill="#FFD42A" stroke="#000000" x1="17.874" y1="70.35" x2="69.231" y2="53.662"/>
<rect x="88.726" y="17.321" transform="matrix(0.9976 -0.0697 0.0697 0.9976 -1.1832 8.1222)" fill="#FFD42A" stroke="#000000" width="54" height="7.368"/>
<rect x="89.25" y="24.811" transform="matrix(0.9976 -0.0698 0.0698 0.9976 -1.7046 8.179)" fill="#FFD42A" stroke="#000000" width="54.001" height="7.368"/>
<rect x="89.773" y="32.301" transform="matrix(0.9976 -0.0698 0.0698 0.9976 -2.2256 8.2327)" fill="#FFD42A" stroke="#000000" width="54.001" height="7.368"/>
<rect x="90.298" y="39.791" transform="matrix(0.9976 -0.0698 0.0698 0.9976 -2.7467 8.2876)" fill="#FFD42A" stroke="#000000" width="54" height="7.367"/>
<rect x="90.821" y="47.28" transform="matrix(0.9976 -0.0698 0.0698 0.9976 -3.2682 8.3434)" fill="#FFD42A" stroke="#000000" width="54.001" height="7.368"/>
<rect x="246.349" y="33.262" transform="matrix(0.9511 0.309 -0.309 0.9511 24.7946 -82.6588)" fill="#FFD42A" stroke="#000000" width="54" height="7.368"/>
<rect x="244.028" y="40.403" transform="matrix(0.9511 0.309 -0.309 0.9511 26.8898 -81.5966)" fill="#FFD42A" stroke="#000000" width="54.001" height="7.368"/>
<rect x="241.708" y="47.543" transform="matrix(0.9511 0.309 -0.309 0.9511 28.9805 -80.5259)" fill="#FFD42A" stroke="#000000" width="54" height="7.368"/>
<rect x="239.387" y="54.685" transform="matrix(0.9511 0.309 -0.309 0.9511 31.0772 -79.4655)" fill="#FFD42A" stroke="#000000" width="54.001" height="7.367"/>
<polygon fill="#FFD42A" stroke="#000000" points="288.608,76.814 237.251,60.232 239.529,53.661 290.885,70.348 "/>
<polyline fill="#FFD42A" stroke="#000000" points="144.766,49.528 145.28,56.878 91.411,60.644 90.896,53.294 "/>
<polygon fill="#FFD42A" stroke="#000000" points="146.585,78.565 92.715,83.085 92.201,74.265 146.07,69.746 "/>
<polygon fill="#FFD42A" stroke="#000000" points="147.107,86.236 93.239,91.083 92.725,82.652 146.593,78.887 "/>
<polyline fill="#FFD42A" stroke="#000000" points="217.942,50.535 217.427,57.884 163.559,54.118 164.072,46.767 "/>
<polygon fill="#FFD42A" stroke="#000000" points="215.856,83.085 161.988,78.565 162.5,69.746 216.371,74.265 "/>
<polygon fill="#FFD42A" stroke="#000000" points="215.333,91.083 161.464,86.236 161.977,78.887 215.845,83.193 "/>
<polygon fill="#FFD42A" stroke="#000000" points="81.869,92.92 29.971,106.908 27.694,100.439 79.592,85.374 "/>
<path stroke="#000000" d="M123.659,78.345c-0.203-2.896-2.041-5.127-4.107-4.982c-2.064,0.145-3.574,2.609-3.372,5.505
	c0.026,0.369-0.001,0.733,0.075,1.077l0,0l0.583,8.331l7.479-0.522l-0.583-8.332l0,0C123.763,79.072,123.685,78.714,123.659,78.345z
	"/>
<path stroke="#000000" d="M192.423,78.869c0.203-2.896-1.308-5.36-3.372-5.505s-3.904,2.085-4.105,4.982
	c-0.026,0.369-0.104,0.727-0.076,1.077l0,0l-0.583,8.332l7.479,0.522l0.583-8.331l0,0C192.424,79.602,192.397,79.238,192.423,78.869
	z"/>
<polyline fill="#FFD42A" stroke="#000000" points="290.312,72.042 288.037,79.049 236.678,62.363 238.955,55.355 "/>
<polygon fill="#FFD42A" stroke="#000000" points="285.209,87.384 233.311,71.237 236.128,63.15 287.487,79.836 "/>
<rect x="229.028" y="85.595" transform="matrix(0.9511 0.309 -0.309 0.9511 40.118 -74.7456)" fill="#FFD42A" stroke="#000000" width="54" height="7.367"/>
<polygon fill="#FFD42A" stroke="#000000" points="278.249,107.725 226.351,93.198 229.168,84.57 280.526,101.257 "/>
<path stroke="#000000" d="M130.246,27.372c-0.228-3.258-2.296-5.767-4.62-5.605c-2.323,0.163-4.022,2.935-3.794,6.193
	c0.029,0.416-0.001,0.825,0.085,1.212l0,0l0.181,2.585l8.414-0.588l-0.181-2.586l0,0C130.362,28.188,130.274,27.787,130.246,27.372z
	"/>
<path stroke="#000000" d="M110.266,29.027c-0.229-3.258-2.297-5.767-4.62-5.605c-2.324,0.163-4.022,2.935-3.794,6.193
	c0.029,0.416-0.001,0.825,0.084,1.212l0,0l0.181,2.585l8.414-0.588l-0.181-2.586l0,0C110.382,29.843,110.295,29.442,110.266,29.027z
	"/>
<path stroke="#000000" d="M179.843,27.464c0.228-3.257,2.296-5.767,4.62-5.604c2.323,0.162,4.022,2.935,3.794,6.192
	c-0.029,0.416,0,0.826-0.084,1.212l0,0l-0.183,2.586l-8.413-0.588l0.182-2.586l0,0C179.728,28.281,179.815,27.88,179.843,27.464z"/>
<path stroke="#000000" d="M197.124,28.58c0.228-3.257,2.295-5.767,4.619-5.604c2.324,0.162,4.022,2.935,3.795,6.192
	c-0.029,0.416,0.001,0.825-0.085,1.212l0,0l-0.181,2.586l-8.413-0.588l0.179-2.586l0,0C197.007,29.396,197.094,28.995,197.124,28.58
	z"/>
<path stroke="#000000" d="M50.689,39.446c-1.009-3.106-3.623-5.04-5.838-4.32c-2.214,0.719-3.192,3.821-2.184,6.927
	c0.129,0.396,0.199,0.801,0.376,1.155l0,0l0.801,2.465l8.021-2.606l-0.801-2.465l0,0C51,40.21,50.818,39.842,50.689,39.446z"/>
<path stroke="#000000" d="M31.704,45.886c-1.009-3.106-3.623-5.041-5.838-4.321c-2.215,0.72-3.192,3.821-2.183,6.927
	c0.128,0.397,0.198,0.801,0.375,1.155l0,0l0.801,2.465l8.021-2.606l-0.801-2.465l0,0C32.014,46.65,31.832,46.281,31.704,45.886z"/>
<path stroke="#000000" d="M257.569,39.664c1.009-3.106,3.621-5.04,5.838-4.32c2.215,0.719,3.193,3.82,2.183,6.927
	c-0.129,0.396-0.198,0.801-0.375,1.155l0,0l-0.801,2.465l-8.022-2.606l0.802-2.465l0,0C257.257,40.429,257.44,40.06,257.569,39.664z
	"/>
<path stroke="#000000" d="M277.061,45.957c1.009-3.106,3.623-5.04,5.838-4.32s3.191,3.821,2.183,6.927
	c-0.129,0.397-0.199,0.801-0.376,1.156l0,0l-0.8,2.464l-8.022-2.605l0.802-2.465l0,0C276.75,46.722,276.931,46.353,277.061,45.957z"
	/>
<path stroke="#000000" d="M121.317,47.476c-0.192-2.751-1.938-4.87-3.901-4.732c-1.961,0.137-3.396,2.479-3.204,5.229
	c0.024,0.352,0,0.697,0.072,1.024l0,0l0.554,7.915l7.104-0.497l-0.554-7.915l0,0C121.415,48.166,121.341,47.827,121.317,47.476z"/>
<path stroke="#000000" d="M194.285,47.433c0.192-2.751-1.243-5.092-3.205-5.229c-1.961-0.138-3.708,1.981-3.9,4.733
	c-0.023,0.351-0.098,0.689-0.071,1.023l0,0l-0.554,7.915l7.105,0.497l0.554-7.915l0,0C194.285,48.13,194.26,47.784,194.285,47.433z"
	/>
<path stroke="#000000" d="M260.76,61.876c0.854-2.623,3.061-4.256,4.931-3.648c1.87,0.606,2.695,3.226,1.844,5.848
	c-0.109,0.335-0.169,0.678-0.318,0.976l0,0l-2.452,7.546l-6.773-2.201l2.452-7.545l0,0C260.499,62.522,260.653,62.211,260.76,61.876
	z"/>
<polygon fill="#FFD42A" stroke="#000000" points="23.091,86.184 74.692,70.037 72.049,62.558 20.517,78.096 "/>
<rect x="25.569" y="85.672" transform="matrix(-0.9563 0.2924 -0.2924 -0.9563 128.9682 159.4388)" fill="#FFD42A" stroke="#000000" width="54.001" height="7.369"/>
<polygon fill="#FFD42A" stroke="#000000" points="92.107,74.899 146.243,71.283 145.503,61.801 91.708,66.505 "/>
<polygon fill="#FFD42A" stroke="#000000" points="217.215,66.125 162.952,62.474 163.599,53.961 217.468,57.727 "/>
<polygon fill="#FFD42A" stroke="#000000" points="25.562,93.744 77.313,77.939 74.643,68.969 23.285,85.656 "/>
<polygon fill="#FFD42A" stroke="#000000" points="20.574,78.999 72.049,62.558 69.232,53.931 17.874,70.617 "/>
<path stroke="#000000" d="M46.234,61.189c-0.853-2.624-3.059-4.257-4.93-3.649c-1.87,0.608-2.695,3.226-1.843,5.849
	c0.108,0.334,0.167,0.677,0.316,0.977l0,0l2.452,7.545l6.773-2.2l-2.452-7.545l0,0C46.496,61.834,46.343,61.523,46.234,61.189z"/>
<line fill="#FFD42A" stroke="#000000" x1="144.857" y1="54.035" x2="91.062" y2="58.74"/>
<polygon fill="#FFD42A" stroke="#000000" points="216.635,74.548 162.372,70.896 163.019,62.384 217.143,66.077 "/>
<polygon fill="#FFD42A" stroke="#000000" points="283.101,93.86 231.488,77.432 234.035,69.45 285.619,86.465 "/>
<path stroke="#000000" d="M251.599,89.012c0.896-2.761,3.22-4.48,5.189-3.839c1.968,0.638,2.837,3.396,1.94,6.157
	c-0.114,0.352-0.177,0.712-0.334,1.027l0,0l-2.482,7.64l-7.229-2.014l2.581-7.942l0,0C251.323,89.692,251.485,89.365,251.599,89.012
	z"/>
<path fill="#FFD42A" stroke="#000000" d="M285.619,85.889C194.938,53.884,113.792,54.182,23.274,86.13l-2.7-7.708
	c87.25-33.144,183.297-33.694,267.533-0.535L285.619,85.889z"/>
<line fill="none" stroke="#000000" x1="115.727" y1="17.313" x2="116.162" y2="24.668"/>
<line fill="none" stroke="#000000" x1="116.25" y1="32.329" x2="116.774" y2="39.38"/>
<line fill="none" stroke="#000000" x1="194.042" y1="17.7" x2="193.535" y2="24.281"/>
<line fill="none" stroke="#000000" x1="192.878" y1="32.365" x2="192.354" y2="39.131"/>
<line fill="none" stroke="#000000" x1="190.526" y1="64" x2="189.963" y2="72.269"/>
<line fill="none" stroke="#000000" x1="174.692" y1="63.826" x2="174.185" y2="72.137"/>
<line fill="none" stroke="#000000" x1="206.809" y1="65.793" x2="206.248" y2="73.276"/>
<line fill="none" stroke="#000000" x1="174.635" y1="46.767" x2="174.185" y2="54.319"/>
<line fill="none" stroke="#000000" x1="207.991" y1="48.525" x2="207.485" y2="56.522"/>
<line fill="none" stroke="#000000" x1="208.779" y1="33.788" x2="208.329" y2="40.256"/>
<line fill="none" stroke="#000000" x1="176.547" y1="31.851" x2="175.985" y2="38.288"/>
<line fill="none" stroke="#000000" x1="177.954" y1="16.744" x2="177.438" y2="23.619"/>
<line fill="none" stroke="#000000" x1="209.735" y1="18.938" x2="209.286" y2="25.519"/>
<line fill="none" stroke="#000000" x1="274.383" y1="33.409" x2="272.327" y2="39.792"/>
<line fill="none" stroke="#000000" x1="269.837" y1="48.23" x2="267.871" y2="54.203"/>
<line fill="none" stroke="#000000" x1="292.324" y1="39.792" x2="290.312" y2="45.891"/>
<line fill="none" stroke="#000000" x1="256.633" y1="28.191" x2="254.65" y2="34.224"/>
<line fill="none" stroke="#000000" x1="251.571" y1="42.408" x2="249.294" y2="48.793"/>
<line fill="none" stroke="#000000" x1="287.703" y1="53.526" x2="285.479" y2="59.916"/>
<line fill="none" stroke="#000000" x1="281.903" y1="67.932" x2="279.583" y2="74.766"/>
<line fill="none" stroke="#000000" x1="247.225" y1="56.752" x2="244.652" y2="64.472"/>
<line fill="none" stroke="#000000" x1="94.211" y1="19.5" x2="94.633" y2="25.744"/>
<line fill="none" stroke="#000000" x1="96.362" y1="34.224" x2="96.827" y2="40.383"/>
<line fill="none" stroke="#000000" x1="97.544" y1="49.033" x2="98.134" y2="58.201"/>
<line fill="none" stroke="#000000" x1="135.006" y1="16.631" x2="135.47" y2="22.937"/>
<line fill="none" stroke="#000000" x1="135.808" y1="31.566" x2="136.272" y2="37.917"/>
<line fill="none" stroke="#000000" x1="136.272" y1="46.584" x2="136.905" y2="54.221"/>
<line fill="none" stroke="#000000" x1="32.273" y1="34.092" x2="34.403" y2="40.594"/>
<line fill="none" stroke="#000000" x1="37.44" y1="48.793" x2="39.409" y2="54.657"/>
<line fill="none" stroke="#000000" x1="14.322" y1="40.324" x2="16.291" y2="46.521"/>
<line fill="none" stroke="#000000" x1="19.36" y1="53.931" x2="21.69" y2="60.62"/>
<line fill="none" stroke="#000000" x1="51.166" y1="28.444" x2="53.247" y2="34.632"/>
<line fill="none" stroke="#000000" x1="57.241" y1="42.45" x2="59.266" y2="48.3"/>
<line fill="none" stroke="#000000" x1="62.228" y1="56.569" x2="64.947" y2="64.333"/>
<line fill="none" stroke="#000000" x1="25.965" y1="68.606" x2="28.328" y2="75.808"/>
<line fill="none" stroke="#000000" x1="31.591" y1="58.369" x2="33.785" y2="64.662"/>
<line fill="none" stroke="#000000" x1="52.207" y1="51.725" x2="54.315" y2="57.807"/>
<line fill="none" stroke="#000000" x1="31.979" y1="83.723" x2="34.291" y2="90.32"/>
<line fill="none" stroke="#000000" x1="37.007" y1="97.966" x2="38.903" y2="103.482"/>
<path stroke="#000000" d="M56.924,89.191c-0.8-2.79-3.063-4.589-5.053-4.019c-1.989,0.57-2.954,3.296-2.153,6.086
	c0.102,0.356,0.151,0.717,0.297,1.039l0,0l2.302,8.026l7.207-2.064l-2.302-8.029l0,0C57.176,89.881,57.026,89.547,56.924,89.191z"/>
<line fill="none" stroke="#000000" x1="66.185" y1="74.063" x2="68.097" y2="80.307"/>
<line fill="none" stroke="#000000" x1="70.628" y1="88.35" x2="72.541" y2="94.539"/>
<line fill="none" stroke="#000000" x1="49.003" y1="78.41" x2="51.138" y2="84.984"/>
<line fill="none" stroke="#000000" x1="41.519" y1="89.356" x2="43.553" y2="95.965"/>
<line fill="none" stroke="#000000" x1="62.528" y1="83.085" x2="64.557" y2="89.545"/>
<path fill="#FFD42A" stroke="#000000" d="M281.703,114.327c-88.324-28.578-166.623-28.528-254.792,0v-6.729
	c88.17-28.528,166.468-28.578,254.792,0V114.327z"/>
<line fill="none" stroke="#000000" x1="272.339" y1="97.966" x2="270.444" y2="103.482"/>
<line fill="none" stroke="#000000" x1="238.719" y1="88.35" x2="236.807" y2="94.539"/>
<line fill="none" stroke="#000000" x1="267.829" y1="89.356" x2="265.794" y2="95.965"/>
<line fill="none" stroke="#000000" x1="246.819" y1="83.085" x2="244.79" y2="89.545"/>
<line fill="none" stroke="#000000" x1="278.458" y1="84.425" x2="276.146" y2="91.021"/>
<line fill="none" stroke="#000000" x1="244.483" y1="74.217" x2="242.34" y2="81.01"/>
<line fill="none" stroke="#000000" x1="261.434" y1="79.112" x2="259.3" y2="85.687"/>
<line fill="none" stroke="#000000" x1="119.938" y1="64.177" x2="120.501" y2="72.446"/>
<line fill="none" stroke="#000000" x1="135.773" y1="63.431" x2="136.28" y2="72.311"/>
<line fill="none" stroke="#000000" x1="103.656" y1="65.97" x2="104.217" y2="73.45"/>
<line fill="none" stroke="#000000" x1="136.244" y1="78.999" x2="136.75" y2="87.31"/>
<line fill="none" stroke="#000000" x1="104.126" y1="82.317" x2="104.688" y2="89.799"/>
<line fill="none" stroke="#000000" x1="172.474" y1="78.998" x2="171.968" y2="87.309"/>
<line fill="none" stroke="#000000" x1="204.592" y1="82.316" x2="204.031" y2="89.798"/>
</svg>
